# xmcd
#
# Track frame offsets:
#	150
#	20197
#	42052
#	54899
#	71376
#	85596
#	99195
#	113082
#	125535
#	136378
#	156427
#	175796
#	192557
#	212065
#	234451
#	256083
#	277701
#	295528
#	313326
#	332603
#
# Disc length: 4647 seconds
#
# Revision: 0
# Processed by: cddbd v1.5.1PL2 Copyright (c) Steve Scherf et al.
# Submitted via: SynApp - FreeCDDB Version: 2.0
#
DISCID=10122514
DTITLE=Various Artist - 50 Jahre Rock! Love Songs CD 2
DYEAR=2004
DGENRE=Ballads
TTITLE0=The Moody Blues - Nights In White Satin
TTITLE1=Holly Johnson - The Power Of Love
TTITLE2=Percy Sledge - When A Man Loves A Woman
TTITLE3=Righteous Brothers - Unchained Melody
TTITLE4=Bee Gees - I've Gotta Get A Message To Yo
TTITLE5=Scott McKenzie - San Francisco
TTITLE6=Chuck Berry - Sweet Little Sixteen
TTITLE7=Ted Herold - Moonlight
TTITLE8=The Everly Brothers - All I Have To Do Is Dream
TTITLE9=Barclay James Harvest - Hymn
TTITLE10=Chris De Burgh - The Lady In Red
TTITLE11=Extreme - More Than Words
TTITLE12=Chris Norman - Lay Back In The Arms Of Someon
TTITLE13=Billy Idol - Eyes Without A Face
TTITLE14=Boston - More Than A Feeling
TTITLE15=Westernhagen - Weil Ich Dich Liebe
TTITLE16=City - Am Fenste
TTITLE17=Udo Lindenberg - Ich Liebe Dich Überhaupt Nicht
TTITLE18=Mandoki Soulmates Allstars - Rainbow Angel
TTITLE19=Mandoki Soulmates Allstars - All You Need Is Love
EXTD=
EXTT0=
EXTT1=
EXTT2=
EXTT3=
EXTT4=
EXTT5=
EXTT6=
EXTT7=
EXTT8=
EXTT9=
EXTT10=
EXTT11=
EXTT12=
EXTT13=
EXTT14=
EXTT15=
EXTT16=
EXTT17=
EXTT18=
EXTT19=
PLAYORDER=
